<svg width="1200" height="1850" xmlns="http://www.w3.org/2000/svg">
  <g>
	 <path fill="#E81E25" stroke="black" stroke-width="37" d="m602.94,1735.62903c-38.76599,-190.30103 -107.11597,-348.66504 -189.90302,-495.43994c-61.40698,-108.87207 -132.54398,-209.36304 -198.36398,-314.93799c-21.97203,-35.24408 -40.93399,-72.47705 -62.047,-109.05408c-42.216,-73.13696 -76.44401,-157.935 -74.269,-267.93201c2.125,-107.47296 33.20798,-193.68399 78.02998,-264.172c73.71899,-115.93497 197.20102,-210.98898 362.884,-235.96898c135.466,-20.424 262.47504,14.082 352.54303,66.748c73.60004,43.03799 130.59601,100.52701 173.91998,168.28c45.21997,70.716 76.35901,154.26001 78.97095,263.23199c1.33704,55.83002 -7.80493,107.53198 -20.68396,150.41797c-13.03394,43.40906 -33.99597,79.69501 -52.646,118.45404c-36.40601,75.659 -82.04895,144.98199 -127.85498,214.34601c-136.43701,206.60596 -264.49603,417.30994 -320.58002,706.02698z"/>
	 <circle r="190" cx="600" cy="550" fill="black"/>
  </g>
</svg>